<svg xmlns="http://www.w3.org/2000/svg" xmlns:xlink="http://www.w3.org/1999/xlink" viewBox="0 0 1000 1500">
  <defs>
    <style>
      .cls-1 {
        fill: #cc2b2f;
      }

      .cls-2 {
        fill: #fdc62f;
      }

      .cls-3 {
        clip-path: url(#clip-path);
      }

      .cls-4 {
        fill: #5c3d31;
      }

      .cls-5, .cls-6 {
        fill: none;
        stroke-miterlimit: 10;
        stroke-width: 15px;
      }

      .cls-5 {
        stroke: #ffc72c;
      }

      .cls-6 {
        stroke: #fbb53b;
      }

      .cls-7 {
        fill: #dd7976;
      }

      .cls-8 {
        clip-path: url(#clip-path-2);
      }

      .cls-9 {
        fill: #fff;
      }

      .cls-10 {
        fill: #ffed9f;
      }

      .cls-11 {
        fill: #fbb53b;
      }

      .cls-12 {
        clip-path: url(#clip-path-3);
      }

      .cls-13 {
        clip-path: url(#clip-path-4);
      }

      .cls-14 {
        clip-path: url(#clip-path-5);
      }

    </style>
    <clipPath id="clip-path">
      <ellipse class="cls-1" cx="500" cy="670.99" rx="443.47" ry="374.18"/>
    </clipPath>
    <clipPath id="clip-path-2">
      <path class="cls-2" d="M626,325.13H331.69V224a10,10,0,0,1,10-10H658.31a10,10,0,0,1,10,10V325.13Z"/>
    </clipPath>
    <clipPath id="clip-path-3">
      <path class="cls-2" d="M626,1016.85H331.69V1118a10,10,0,0,0,10,10H658.31a10,10,0,0,0,10-10V1016.85Z"/>
    </clipPath>
    <clipPath id="clip-path-4">
      <path class="cls-2" d="M-478.47,325.13H-772.78V224a10,10,0,0,1,10-10h316.63a10,10,0,0,1,10,10V325.13Z"/>
    </clipPath>
    <clipPath id="clip-path-5">
      <path class="cls-2" d="M-478.47,1016.85H-772.78V1118a10,10,0,0,0,10,10h316.63a10,10,0,0,0,10-10V1016.85Z"/>
    </clipPath>
  </defs>
  <g id="Layer_1" data-name="Layer 1">
    <g>
      <g>
        <ellipse class="cls-1" cx="500" cy="670.99" rx="443.47" ry="374.18"/>
        <g class="cls-3">
          <circle class="cls-4" cx="354.19" cy="541.9" r="25.81"/>
          <circle class="cls-4" cx="645.81" cy="541.9" r="25.81"/>
          <path class="cls-5" d="M340,317S5.2,610.17,340,1025.4"/>
          <path class="cls-6" d="M660,316.78S994.8,610,660,1025.2"/>
          <circle class="cls-7" cx="205.35" cy="743.92" r="114.65"/>
          <circle class="cls-7" cx="794.65" cy="743.92" r="114.65"/>
        </g>
      </g>
      <path class="cls-4" d="M397,650.8c-14.22,19.4-12.64,48.15,1.12,67.36,15.68,21.9,44.35,29.78,69.84,22.53a67.61,67.61,0,0,0,17.46-7.7c5.5-3.48,10.25-8,15.69-11.58.71-.47,1.46-.87,2.18-1.32,1.45-.93-2.59.54-.12,0,2.72-.59-2.89.4-.24.06l-1.7-.21q1.8.55-.51-.36c5.37,2.61,8.82,6.71,14.11,10.55,20.66,15,51.81,15.25,72.44.06,24.08-17.73,31.57-50,19.86-77.06-2.57-6-11.3-7.3-16.41-4.31-6.15,3.6-6.89,10.45-4.31,16.42,3.06,7.07,3.19,16.52,1.07,24.36-2.17,8-6.51,15.6-13.66,20.9-13.4,9.92-34.2,9.21-47.39-1.59-8.11-6.65-16.78-14.67-28.15-12.28-9.32,2-16.16,9.72-23.76,14.84-15,10.15-36.8,11.07-50.42-.14a35.67,35.67,0,0,1-6.38-48.41c3.83-5.23.88-13.39-4.31-16.42-6.08-3.56-12.57-.94-16.41,4.3Z"/>
      <path class="cls-1" d="M494,1140.67v141.55c0,7.72,12,7.74,12,0V1140.67c0-7.72-12-7.73-12,0Z"/>
      <path class="cls-1" d="M514,1140.67v141.55c0,7.72,12,7.74,12,0V1140.67c0-7.72-12-7.73-12,0Z"/>
      <path class="cls-1" d="M534,1140.67v125.52c0,7.72,12,7.73,12,0V1140.67c0-7.72-12-7.73-12,0Z"/>
      <path class="cls-1" d="M554,1140.67v141.55c0,7.72,12,7.74,12,0V1140.67c0-7.72-12-7.73-12,0Z"/>
      <path class="cls-1" d="M574,1140.67v136.67c0,7.72,12,7.74,12,0V1140.67c0-7.72-12-7.73-12,0Z"/>
      <path class="cls-1" d="M594,1140.67v141.55c0,7.72,12,7.74,12,0V1140.67c0-7.72-12-7.73-12,0Z"/>
      <path class="cls-1" d="M614,1140.67v125.57c0,7.72,12,7.74,12,0V1140.67c0-7.72-12-7.73-12,0Z"/>
      <path class="cls-1" d="M634,1140.67v141.55c0,7.72,12,7.74,12,0V1140.67c0-7.72-12-7.73-12,0Z"/>
      <path class="cls-1" d="M654,1140.67v141.55c0,7.72,12,7.74,12,0V1140.67c0-7.72-12-7.73-12,0Z"/>
      <path class="cls-1" d="M334,1140.67v121.47c0,7.72,12,7.73,12,0V1140.67c0-7.72-12-7.73-12,0Z"/>
      <path class="cls-1" d="M354,1140.67v141.55c0,7.72,12,7.74,12,0V1140.67c0-7.72-12-7.73-12,0Z"/>
      <path class="cls-1" d="M374,1140.67v141.55c0,7.72,12,7.74,12,0V1140.67c0-7.72-12-7.73-12,0Z"/>
      <path class="cls-1" d="M394,1140.67V1276c0,7.72,12,7.73,12,0V1140.67c0-7.72-12-7.73-12,0Z"/>
      <path class="cls-1" d="M414,1140.67v141.55c0,7.72,12,7.74,12,0V1140.67c0-7.72-12-7.73-12,0Z"/>
      <path class="cls-1" d="M434,1140.67v109.5c0,7.72,12,7.74,12,0v-109.5c0-7.72-12-7.73-12,0Z"/>
      <path class="cls-1" d="M454,1140.67v141.55c0,7.72,12,7.74,12,0V1140.67c0-7.72-12-7.73-12,0Z"/>
      <path class="cls-1" d="M474,1140.67v131.79c0,7.72,12,7.74,12,0V1140.67c0-7.72-12-7.73-12,0Z"/>
      <g>
        <path class="cls-2" d="M626,325.13H331.69V224a10,10,0,0,1,10-10H658.31a10,10,0,0,1,10,10V325.13Z"/>
        <g class="cls-8">
          <path class="cls-9" d="M383.49,211.68c7.72,0,7.73-12,0-12s-7.74,12,0,12Z"/>
          <path class="cls-9" d="M392.86,207.78V328c0,7.72,12,7.73,12,0V207.78c0-7.72-12-7.74-12,0Z"/>
          <path class="cls-10" d="M381,201.49V322.42c0,7.72,12,7.73,12,0V201.49c0-7.73-12-7.74-12,0Z"/>
          <path class="cls-10" d="M385.17,202.88V326.61c0,7.72,12,7.74,12,0V202.88c0-7.72-12-7.73-12,0Z"/>
          <path class="cls-10" d="M395.55,210.22V325.56a14.5,14.5,0,0,0,29,0V210.22a14.5,14.5,0,1,0-29,0Z"/>
          <path class="cls-10" d="M347.52,202.88V337.1c0,10.29,16,10.31,16,0V202.88c0-10.29-16-10.31-16,0Z"/>
          <path class="cls-11" d="M647.05,217.56V325c0,14.8,23,14.82,23,0V206.82c0-14.8-23-14.82-23,0V321.37c0,14.8,23,14.82,23,0V206.82c0-14.8-23-14.82-23,0V325c0,14.8,23,14.82,23,0V217.56c0-14.8-23-14.82-23,0Z"/>
          <path class="cls-11" d="M628.18,205V329.76c0,14.8,23,14.82,23,0V205c0-14.8-23-14.82-23,0Z"/>
          <path class="cls-11" d="M610.35,200.79v138.4c0,14.8,23,14.83,23,0V200.79c0-14.8-23-14.83-23,0Z"/>
          <path class="cls-11" d="M585,205v144.7c0,9.65,15,9.67,15,0V205c0-9.65-15-9.67-15,0Z"/>
          <path class="cls-11" d="M593.25,212.44V322c0,7.72,12,7.74,12,0V212.44c0-7.72-12-7.74-12,0Z"/>
        </g>
      </g>
      <g>
        <path class="cls-2" d="M626,1016.85H331.69V1118a10,10,0,0,0,10,10H658.31a10,10,0,0,0,10-10V1016.85Z"/>
        <g class="cls-12">
          <path class="cls-9" d="M383.49,1142.3c7.72,0,7.73-12,0-12s-7.74,12,0,12Z"/>
          <path class="cls-9" d="M404.86,1134.2V1014c0-7.72-12-7.73-12,0V1134.2c0,7.73,12,7.74,12,0Z"/>
          <path class="cls-10" d="M393,1140.5V1019.56c0-7.72-12-7.73-12,0V1140.5c0,7.72,12,7.73,12,0Z"/>
          <path class="cls-10" d="M397.17,1139.1V1015.37c0-7.72-12-7.74-12,0V1139.1c0,7.72,12,7.73,12,0Z"/>
          <path class="cls-10" d="M424.55,1131.76V1016.42a14.5,14.5,0,0,0-29,0v115.34a14.5,14.5,0,0,0,29,0Z"/>
          <path class="cls-10" d="M363.52,1139.1V1004.88c0-10.29-16-10.31-16,0V1139.1c0,10.29,16,10.31,16,0Z"/>
          <path class="cls-11" d="M670.05,1124.42V1017c0-14.79-23-14.82-23,0v118.21c0,14.8,23,14.82,23,0V1020.61c0-14.8-23-14.82-23,0v114.55c0,14.8,23,14.82,23,0V1017c0-14.79-23-14.82-23,0v107.47c0,14.8,23,14.82,23,0Z"/>
          <path class="cls-11" d="M651.18,1137V1012.22c0-14.8-23-14.82-23,0V1137c0,14.8,23,14.82,23,0Z"/>
          <path class="cls-11" d="M633.35,1141.19v-138.4c0-14.8-23-14.83-23,0v138.4c0,14.8,23,14.83,23,0Z"/>
          <path class="cls-11" d="M600,1137V992.3c0-9.65-15-9.67-15,0V1137c0,9.65,15,9.67,15,0Z"/>
          <path class="cls-11" d="M605.25,1129.54V1020c0-7.72-12-7.74-12,0v109.51c0,7.73,12,7.74,12,0Z"/>
        </g>
      </g>
    </g>
    <g>
      <path class="cls-2" d="M-478.47,325.13H-772.78V224a10,10,0,0,1,10-10h316.63a10,10,0,0,1,10,10V325.13Z"/>
      <g class="cls-13">
        <path class="cls-9" d="M172.38,279.49c7.72,0,7.73-12,0-12s-7.74,12,0,12Z"/>
        <path class="cls-9" d="M172.38,279.49c7.72,0,7.73-12,0-12s-7.74,12,0,12Z"/>
        <path class="cls-9" d="M48,297.91c10.3,0,10.31-16,0-16s-10.31,16,0,16Z"/>
        <path class="cls-9" d="M48,297.91c10.3,0,10.31-16,0-16s-10.31,16,0,16Z"/>
        <path class="cls-9" d="M31.17,304.2c10.3,0,10.32-16,0-16s-10.31,16,0,16Z"/>
        <path class="cls-9" d="M30.13,304.2c10.29,0,10.31-16,0-16s-10.32,16,0,16Z"/>
        <path class="cls-9" d="M30.13,304.2c10.29,0,10.31-16,0-16s-10.32,16,0,16Z"/>
        <path class="cls-9" d="M30.13,304.2c10.29,0,10.31-16,0-16s-10.32,16,0,16Z"/>
        <path class="cls-9" d="M30.13,304.2c10.29,0,10.31-16,0-16s-10.32,16,0,16Z"/>
      </g>
    </g>
    <g>
      <path class="cls-2" d="M-478.47,1016.85H-772.78V1118a10,10,0,0,0,10,10h316.63a10,10,0,0,0,10-10V1016.85Z"/>
      <g class="cls-14">
        <path class="cls-9" d="M172.38,1074.5c7.72,0,7.73-12,0-12s-7.74,12,0,12Z"/>
        <path class="cls-9" d="M172.38,1074.5c7.72,0,7.73-12,0-12s-7.74,12,0,12Z"/>
        <path class="cls-9" d="M48,1060.07c10.3,0,10.31-16,0-16s-10.31,16,0,16Z"/>
        <path class="cls-9" d="M48,1060.07c10.3,0,10.31-16,0-16s-10.31,16,0,16Z"/>
        <path class="cls-9" d="M31.17,1053.78c10.3,0,10.32-16,0-16s-10.31,16,0,16Z"/>
        <path class="cls-9" d="M30.13,1053.78c10.29,0,10.31-16,0-16s-10.32,16,0,16Z"/>
        <path class="cls-9" d="M30.13,1053.78c10.29,0,10.31-16,0-16s-10.32,16,0,16Z"/>
        <path class="cls-9" d="M30.13,1053.78c10.29,0,10.31-16,0-16s-10.32,16,0,16Z"/>
        <path class="cls-9" d="M30.13,1053.78c10.29,0,10.31-16,0-16s-10.32,16,0,16Z"/>
      </g>
    </g>
  </g>
</svg>
