<svg id="레이어_1" data-name="레이어 1" xmlns="http://www.w3.org/2000/svg" viewBox="0 0 396.85 396.85">
  <defs>
    <style>
      .cls-1 {
        fill: #fff;
      }

      .cls-2 {
        fill: #5c3d31;
      }

      .cls-3 {
        fill: #dc7977;
      }
    </style>
  </defs>
  <path class="cls-1" d="M365.12,164.24,284.81,35.73a39.47,39.47,0,0,0-15.05-13.91A41.71,41.71,0,0,0,250.32,17h-.74c-7.2.09-12.56,3.52-16.48,6-2.4,1.53-4.48,2.86-6,2.87-31-22.8-57.39,0-57.39,0-1.49,0-3.57-1.34-6-2.87-3.92-2.51-9.28-5.94-16.48-6h-.74a41.64,41.64,0,0,0-19.43,4.86A39.43,39.43,0,0,0,112,35.73L31.73,164.24c-20,32-25.62,69.39-15.85,105.3,10.14,37.2,35.34,67.92,71,86.49,28.38,14.79,63.46,23.3,101.93,24.78v.31l9.65-.08,9.64.08v-.31c38.47-1.48,73.55-10,101.93-24.78,35.63-18.57,60.84-49.29,71-86.49C390.74,233.63,385.12,196.24,365.12,164.24Z"/>
  <g>
    <circle class="cls-2" cx="134.95" cy="156.81" r="11.24"/>
    <circle class="cls-2" cx="261.9" cy="156.81" r="11.24"/>
  </g>
  <circle class="cls-3" cx="80.38" cy="216.54" r="39.89"/>
  <circle class="cls-3" cx="313.03" cy="218.11" r="39.89"/>
  <path class="cls-2" d="M152.08,203.82c-7.91,11.3-4.82,27.9,6.12,36.1,12.86,9.65,29.16,5.49,40.53-4.18,1.1-.93,1.61-.41.18-.9,1.53.53,2.88,2.06,4.1,3a30.75,30.75,0,0,0,9.25,5.26,29,29,0,0,0,21.09-1.08c13.25-6,19.3-22.59,13.85-35.9-2.61-6.34-13.06-3.56-10.42,2.88,4.21,10.24-.76,22.71-12.41,24.6-5.68.92-10.64-1-15-4.48-3.34-2.65-6.78-5.53-11.33-4.74s-7.93,4.78-11.8,7.18a20.41,20.41,0,0,1-16.18,2.35,16.11,16.11,0,0,1-8.64-24.67c4-5.7-5.36-11.11-9.33-5.45Z"/>
</svg>
