<?xml version="1.0" encoding="UTF-8" standalone="no"?>

<svg
   version="1.1"
   id="svg1"
   width="1005.7715"
   height="553.08478"
   viewBox="0 0 1005.7715 553.08478"
   xmlns="http://www.w3.org/2000/svg"
   xmlns:svg="http://www.w3.org/2000/svg">
  <defs
     id="defs1">
    <clipPath
       clipPathUnits="userSpaceOnUse"
       id="clipPath36-2">
      <path
         d="M 0,566.929 H 566.929 V 0 H 0 Z"
         transform="translate(-119.43588,-395.87491)"
         id="path36-7" />
    </clipPath>
    <clipPath
       clipPathUnits="userSpaceOnUse"
       id="clipPath38-8">
      <path
         d="M 0,566.929 H 566.929 V 0 H 0 Z"
         transform="translate(-284.15538,-382.25911)"
         id="path38-6" />
    </clipPath>
    <clipPath
       clipPathUnits="userSpaceOnUse"
       id="clipPath40-6">
      <path
         d="M 0,566.929 H 566.929 V 0 H 0 Z"
         transform="translate(-284.15538,-382.25921)"
         id="path40-4" />
    </clipPath>
    <clipPath
       clipPathUnits="userSpaceOnUse"
       id="clipPath42-6">
      <path
         d="M 0,566.929 H 566.929 V 0 H 0 Z"
         transform="translate(-284.15538,-395.19471)"
         id="path42-2" />
    </clipPath>
    <clipPath
       clipPathUnits="userSpaceOnUse"
       id="clipPath44-2">
      <path
         d="M 0,566.929 H 566.929 V 0 H 0 Z"
         transform="translate(-284.15538,-395.19471)"
         id="path44-8" />
    </clipPath>
    <clipPath
       clipPathUnits="userSpaceOnUse"
       id="clipPath46-0">
      <path
         d="M 0,566.929 H 566.929 V 0 H 0 Z"
         transform="translate(-283.46463,-158.9075)"
         id="path46-8" />
    </clipPath>
    <clipPath
       clipPathUnits="userSpaceOnUse"
       id="clipPath48-7">
      <path
         d="M 0,566.929 H 566.929 V 0 H 0 Z"
         transform="translate(-287.93688,-153.0835)"
         id="path48-0" />
    </clipPath>
  </defs>
  <g
     id="layer-MC0"
     transform="translate(-8640.4104,874.12915)">
    <g
       id="g1959">
      <g
         id="g1958"
         transform="rotate(-11.72924,7422.0078,-35008.488)">
        <path
           id="path35-7"
           d="M 0,0 V -9.59"
           style="fill:#9e9e9f;fill-opacity:1;fill-rule:nonzero;stroke:none"
           transform="matrix(1.3333333,0,0,-1.3333333,1633.0894,-1105.9457)"
           clip-path="url(#clipPath36-2)" />
        <path
           id="path37-7"
           d="m 0,0 v -224.636 c 0,-3.228 3.28,-5.435 6.256,-4.185 17.83,7.486 72.96,25.109 154.939,0.756 5.797,-1.722 11.621,2.631 11.621,8.678 v 213.37 c 0,3.718 -2.258,7.052 -5.715,8.419 C 145.793,10.83 68.668,36.618 0,0"
           style="fill:#8abfe3;fill-opacity:1;fill-rule:nonzero;stroke:none"
           transform="matrix(1.3333333,0,0,-1.3333333,1852.7154,-1087.7913)"
           clip-path="url(#clipPath38-8)" />
        <path
           id="path39-6"
           d="m 0,0 v -224.636 c 0,-3.228 -3.28,-5.435 -6.256,-4.185 -17.83,7.486 -72.96,25.109 -154.939,0.756 -5.797,-1.722 -11.621,2.631 -11.621,8.678 v 213.37 c 0,3.718 2.258,7.052 5.715,8.419 C -145.793,10.83 -68.668,36.618 0,0"
           style="fill:#8abfe3;fill-opacity:1;fill-rule:nonzero;stroke:none"
           transform="matrix(1.3333333,0,0,-1.3333333,1852.7154,-1087.7914)"
           clip-path="url(#clipPath40-6)" />
        <path
           id="path41-4"
           d="m 0,0 v -231.744 c 0,0 59.702,34.877 159.42,2.02 2.922,-0.963 5.933,1.221 5.933,4.297 v 222.51 c 0,1.801 -1.056,3.425 -2.706,4.147 C 147.271,7.949 69.153,38.542 0,0"
           style="fill:#ffffff;fill-opacity:1;fill-rule:nonzero;stroke:none"
           transform="matrix(1.3333333,0,0,-1.3333333,1852.7154,-1105.0387)"
           clip-path="url(#clipPath42-6)" />
        <path
           id="path43-2"
           d="m 0,0 v -231.744 c 0,0 -59.702,34.877 -159.42,2.02 -2.922,-0.963 -5.933,1.221 -5.933,4.297 v 222.51 c 0,1.801 1.056,3.425 2.706,4.147 C -147.271,7.949 -69.153,38.542 0,0"
           style="fill:#ffffff;fill-opacity:1;fill-rule:nonzero;stroke:none"
           transform="matrix(1.3333333,0,0,-1.3333333,1852.7154,-1105.0387)"
           clip-path="url(#clipPath44-2)" />
        <path
           id="path45-0"
           d="M 0,0 -4.06,-4.54"
           style="fill:#9e9e9f;fill-opacity:1;fill-rule:nonzero;stroke:none"
           transform="matrix(1.3333333,0,0,-1.3333333,1851.7944,-789.98912)"
           clip-path="url(#clipPath46-0)" />
        <path
           id="path47-2"
           d="m 0,0 h -7.563 c -1.566,0 -2.835,1.269 -2.835,2.835 V 5.033 H 2.835 V 2.835 C 2.835,1.269 1.566,0 0,0"
           style="fill:#8abfe3;fill-opacity:1;fill-rule:nonzero;stroke:none"
           transform="matrix(1.3333333,0,0,-1.3333333,1857.7574,-782.22379)"
           clip-path="url(#clipPath48-7)" />
        <path
           id="path49-2"
           d="m 2017.9548,-829.84592 c -12.5937,0.6875 -25.75,0.98437 -39.5156,0.89062 l 9.1875,-33.54687 47.8437,13.12501 c -2.5468,16.0625 -3.9531,30.375 -4.125,42.71875 -0.2031,8.21875 -0.047,16.0625 0.5782,23.8125 -18.7032,9.57812 -39.0625,15.23437 -61.1563,16.98437 l 6.5313,20.625 c 20.2968,-2.01563 39.4375,-7.3125 57.5625,-15.65626 1.3437,7.70313 3.3906,14.46876 6.0312,20.70313 6.5938,15.34375 14.4375,24.39063 23.6094,26.90625 10.2656,2.81245 22.375,-10.39062 36.0625,-39.25 l -15.375,-14.3125 c -8.8594,21.45313 -14.7031,31.79688 -17.4688,31.03125 -3.4218,-0.9375 -6.9843,-7.20312 -10.75,-18.5625 -1.5156,-4.54687 -2.5312,-10.10937 -3.5,-16.59375 17.1094,-10.4375 33.0469,-24.21875 48.0625,-41.23438 l -15,-13.98437 c -10.7031,12.21875 -22.2812,22.59375 -34.4999,31.17188 -0.1251,-3.71876 -0.2032,-7.62501 0.062,-11.90626 0,-10.10937 1.3125,-22.375 3.8907,-36.82812 l 62.7812,17.21876 5.3281,-19.42188 -64.4999,-17.70319 c 3.0625,-16.15624 7.4531,-34.68749 13.2031,-55.625 l -20.5002,-5.62437 c -5.5156,20.07811 -9.9062,38.60937 -13.2031,55.64062 l -46.1406,-12.65625 7.4531,-27.14063 c 10.7969,-0.0156 21.2344,-0.35937 31.2969,-1.0625 l -1.8282,-20.9375 c -25.6562,3.06249 -53.8281,1.98437 -84.6093,-3 l -1,20.40625 c 11.7968,1.375 23.1406,2.65625 34.4062,3.45312 l -6.2188,22.65624 -42.2813,-11.60936 -5.3281,19.42187 42.2813,11.60936 -10.4844,38.23437 c -14.2188,-0.92187 -29,-2.21875 -44.3907,-3.92187 l -2.7968,21.04687 c 14.2656,1.625 27.9843,2.64063 41.5625,3.375 l -9.547,34.82811 c -1.4059,5.12448 -4.8903,6.90573 -10.2184,5.43698 -6.8438,-1.875 -13.75,-4.21875 -21.0156,-7.14062 l -0.8438,20.6875 23.9219,6.5625 c 14.2969,3.92187 23.5,-1.14063 27.25,-14.79688 l 12.25,-44.65625 c 13.7656,0.10937 26.875,0.0312 39.4531,-0.65625 z m 77.8125,-81.07813 -17.25,9.28125 c 13.25,15.34376 22.875,28.78125 29.2813,40.64063 l 18.7187,-10.48437 c -8.0312,-12.54688 -18.2344,-25.67188 -30.75,-39.43751 z m 0,0"
           style="fill:#fac000;fill-opacity:1;fill-rule:nonzero;stroke:none;stroke-width:1.33333"
           aria-label="我" />
        <path
           id="path50-4"
           d="m 1661.3923,-1108.8029 28.7969,110.1562 19.8594,-5.1875 -36.2969,-138.8125 c 4.9688,-16.9063 7.7657,-34.4063 8.9375,-52.125 l -20.8906,-3.9063 c -1.8281,34.8594 -10.5781,67.2969 -25.9687,97.2032 l 12.0156,19.4375 c 4.8281,-8.8594 9.4531,-17.6407 13.5469,-26.7657 z m 140.8438,-36.375 -16.0313,10.4375 c 15.7344,20.9062 31.5,45.3437 47.3907,73.5937 l 15.2812,-12.4844 c -14.6094,-25.8906 -30.2187,-49.7343 -46.6406,-71.5468 z m -84.3125,-20.8438 74.2344,-19.4063 c -0.4219,10.3907 -1.8907,20.1407 -4.1094,28.75 l 20.4531,0.4844 c 1.75,-13.8594 2.4375,-27.4531 2.5,-40.8594 l -3.3906,-12.9687 -87.8283,22.9682 c 0.4531,-6.8125 0.5781,-14.0156 0.6719,-21.3906 l -19.6406,0.8906 c 0.5,28.4531 -4.0625,56.2344 -13.6875,83.5312 l 19.9218,6.1875 c 4.9844,-15.1562 8.6407,-31.0781 10.875,-48.1875 z m 62.8594,142.125 c 13.375,-3.5 18.2656,-12.1406 14.7187,-25.7344 l -29.4688,-112.6718 -19.25,5.0312 28.1563,107.6562 c 1.4219,5.4375 -0.3594,8.8125 -5.3906,10.125 -7.7344,2.0156 -16.0469,3.5313 -24.8438,4.9219 l 9.3125,17.6719 z m -61.0157,-97.5 c -0.5625,32.0781 -3.9218,59.3281 -9.9375,81.6563 l 20.3594,1.8281 c 6.0156,-24.8125 8.875,-52.3594 8.6563,-83.0938 z m 0,0"
           style="fill:#fac000;fill-opacity:1;fill-rule:nonzero;stroke:none;stroke-width:1.33311"
           aria-label="你" />
      </g>
      <path
         id="path1843-0"
         d="m 9589.7315,-768.59098 32.1448,154.33342 24.3055,-5.86894 -38.4066,-184.42853 c 8.7991,-20.91842 15.1375,-42.11201 19.2028,-63.87336 l -24.8335,-5.70073 c -8.7499,45.70061 -28.5695,88.65023 -59.1093,129.07536 l 13.642,25.46841 c 12.2358,-16.0487 23.3432,-32.41458 33.0543,-49.00563 z m 0,0"
         style="fill:#948c84;fill-opacity:1;fill-rule:nonzero;stroke:none;stroke-width:1.11409"
         aria-label="亻" />
      <path
         id="path1844-5"
         d="m 9229.835,-746.21982 -15.4745,136.64883 19.8237,2.47116 15.4736,-136.64883 z m 26.1365,188.92553 c 14.9124,1.86802 23.4699,-5.00114 25.1812,-20.19579 l 20.427,-180.40887 -20.2304,-2.51471 -19.8228,175.06941 c -0.6456,5.79546 -4.2226,8.51665 -10.3819,7.75177 -10.4375,-1.29442 -21.464,-3.13308 -32.8838,-5.20708 l 2.1611,21.09306 z m 0,0"
         style="fill:#d27874;fill-opacity:1;fill-rule:nonzero;stroke:none;stroke-width:1.22582"
         aria-label="刂" />
      <path
         id="path1845-5"
         d="m 9362.9271,-699.16433 -6.4014,13.72351 c 13.4741,5.56609 24.55,11.26438 33.0735,17.21388 l 6.5326,-14.88696 c -9.6612,-5.87017 -20.6297,-11.26437 -33.2047,-16.05043 z m 133.6704,113.6486 31.0588,-11.64778 -1.4868,-16.98911 c -3.704,1.7584 -8.8825,4.04565 -15.6553,6.96751 -7.0243,2.64422 -13.7249,5.32811 -20.3063,7.78724 -11.8553,4.45549 -22.1638,8.14418 -30.8545,11.21147 -9.1825,3.0673 -16.4585,4.33652 -21.7091,3.74158 -4.4712,-0.70072 -9.1341,-2.60456 -14.1094,-5.48676 -1.0311,-0.71394 -2.0253,-1.256 -2.949,-1.62619 l -19.1912,-62.27139 -33.2407,12.45424 4.6507,15.07206 19.9108,-7.45668 14.193,46.04909 c -4.795,5.6322 -8.9186,16.68504 -12.1907,33.07921 l 13.5332,6.80887 c 2.9253,-18.09969 6.0179,-27.67177 9.0989,-28.822 1.7499,-0.66106 4.2072,-0.119 7.108,1.90384 6.126,3.91344 12.743,5.83051 19.6477,5.42065 6.653,-0.66106 15.1634,-2.76321 25.1729,-6.31969 9.8535,-3.50359 18.9762,-6.75598 27.319,-9.87616 z m 0,0"
         style="fill:#8abfe3;fill-opacity:1;fill-rule:nonzero;stroke:none;stroke-width:1.08205"
         aria-label="辶" />
      <path
         id="path1846-0"
         d="m 9401.5409,-820.55186 -2.1793,19.08677 -37.1678,-6.38527 -1.4261,12.49059 37.1677,6.38528 -2.1333,18.68446 15.719,2.70046 2.1333,-18.68445 39.6296,6.8082 -2.1334,18.68445 15.7106,2.69903 2.1333,-18.68446 39.299,6.75136 1.4258,-12.4906 -39.2986,-6.75136 2.1793,-19.08677 -15.7106,-2.69901 -2.1793,19.08676 -39.6295,-6.8082 2.1793,-19.08678 z m 0,0"
         style="fill:#fac000;fill-opacity:1;fill-rule:nonzero;stroke:none;stroke-width:0.698822"
         aria-label="艹" />
    </g>
  </g>
</svg>
