<?xml version="1.0" standalone="no"?>
<!DOCTYPE svg PUBLIC "-//W3C//DTD SVG 20010904//EN"
 "http://www.w3.org/TR/2001/REC-SVG-20010904/DTD/svg10.dtd">
<svg version="1.0" xmlns="http://www.w3.org/2000/svg"
 width="128.000000pt" height="128.000000pt" viewBox="0 0 128.000000 128.000000"
 preserveAspectRatio="xMidYMid meet">

<g transform="translate(0.000000,128.000000) scale(0.100000,-0.100000)" stroke="none">
<path d="M533 1270 c-128 -23 -253 -90 -347 -185 -70 -72 -117 -148 -152 -250
-24 -69 -28 -96 -28 -195 0 -99 4 -126 28 -195 36 -104 83 -180 157 -254 74
-74 150 -121 254 -157 69 -24 96 -28 195 -28 99 0 126 4 195 28 104 36 180 83
254 157 74 74 121 150 157 254 24 69 28 96 28 195 0 99 -4 126 -28 195 -89
257 -309 426 -573 440 -48 2 -111 0 -140 -5z m231 -111 c174 -34 342 -198 393
-384 17 -64 17 -206 0 -270 -51 -186 -212 -344 -392 -385 -67 -15 -198 -14
-260 3 -183 50 -332 199 -382 382 -17 63 -18 195 -3 260 46 190 215 356 400
394 97 20 143 20 244 0z"/>
<path d="M446 945 c-19 -20 -21 -58 -3 -73 8 -7 73 -13 160 -14 l147 -3 -135
-235 c-74 -129 -135 -243 -135 -252 0 -24 44 -51 69 -43 14 4 68 90 161 252
155 274 161 290 111 345 l-29 33 -165 3 c-142 3 -167 1 -181 -13z"/>
</g>
</svg>
