<?xml version="1.0" encoding="UTF-8" standalone="no"?>

<svg
   width="13.229231mm"
   height="13.615319mm"
   viewBox="0 0 13.229231 13.615319"
   version="1.1"
   id="svg1"
   xml:space="preserve"
   xmlns="http://www.w3.org/2000/svg"
   xmlns:svg="http://www.w3.org/2000/svg"><defs
     id="defs1"><style
       id="style1">
      .cls-1 {
        fill: none;
      }

      .cls-1, .cls-3 {
        stroke: #3e3a39;
        stroke-miterlimit: 10;
        stroke-width: 30px;
      }

      .cls-2 {
        clip-path: url(#clip-path);
      }

      .cls-3 {
        fill: #fff;
      }
    </style><clipPath
       id="clip-path"><ellipse
         class="cls-1"
         cx="500"
         cy="500"
         rx="443.47"
         ry="374.17999"
         id="ellipse1" /></clipPath></defs><g
     id="layer1"
     transform="translate(-134.81397,-1234.7862)"><g
       id="g292"
       transform="matrix(0.01442759,0,0,0.01442308,134.21478,1234.3824)"
       style="stroke:#ffffff;stroke-opacity:1"><g
         id="g3"
         style="stroke:#ffffff;stroke-opacity:1"><g
           class="cls-2"
           clip-path="url(#clip-path)"
           id="g2"
           style="stroke:#ffffff;stroke-opacity:1"><path
             class="cls-1"
             d="m 340,146 c 0,0 -334.8,293.18 0,708.41"
             id="path1-3"
             style="stroke:#ffffff;stroke-opacity:1" /><path
             class="cls-1"
             d="m 660,145.79 c 0,0 334.8,293.21 0,708.42"
             id="path2-0"
             style="stroke:#ffffff;stroke-opacity:1" /></g><ellipse
           class="cls-1"
           cx="500"
           cy="500"
           rx="443.47"
           ry="374.17999"
           id="ellipse2"
           style="stroke:#ffffff;stroke-opacity:1" /></g><path
         class="cls-3"
         d="M 626,845.86 H 331.69 V 947 a 10,10 0 0 0 10,10 h 316.62 a 10,10 0 0 0 10,-10 V 845.86 Z"
         id="path3-7"
         style="fill:#282c35;fill-opacity:1;stroke:#ffffff;stroke-opacity:1" /><path
         class="cls-3"
         d="M 626,154.14 H 331.69 V 53 a 10,10 0 0 1 10,-10 h 316.62 a 10,10 0 0 1 10,10 v 101.14 z"
         id="path4-6"
         style="fill:#282c35;fill-opacity:1;stroke:#ffffff;stroke-opacity:1" /></g></g></svg>
