<?xml version="1.0" encoding="UTF-8" standalone="no"?>

<svg
   version="1.1"
   id="svg1"
   width="50.000244"
   height="51.459717"
   viewBox="0 0 50.000245 51.459717"
   xml:space="preserve"
   xmlns="http://www.w3.org/2000/svg"
   xmlns:svg="http://www.w3.org/2000/svg"><defs
     id="defs1"><style
       id="style1">
      .cls-1 {
        fill: none;
      }

      .cls-1, .cls-3 {
        stroke: #3e3a39;
        stroke-miterlimit: 10;
        stroke-width: 30px;
      }

      .cls-2 {
        clip-path: url(#clip-path);
      }

      .cls-3 {
        fill: #fff;
      }
    </style><clipPath
       id="clip-path"><ellipse
         class="cls-1"
         cx="500"
         cy="500"
         rx="443.47"
         ry="374.17999"
         id="ellipse1" /></clipPath></defs><g
     id="layer-MC0"
     transform="translate(-3964.6496,2246.0193)"><g
       id="g4"
       transform="matrix(0.05452947,0,0,0.05451244,3962.3854,-2247.5457)"><g
         id="g292"><g
           id="g3"><g
             class="cls-2"
             clip-path="url(#clip-path)"
             id="g2"><path
               class="cls-1"
               d="m 340,146 c 0,0 -334.8,293.18 0,708.41"
               id="path1-3" /><path
               class="cls-1"
               d="m 660,145.79 c 0,0 334.8,293.21 0,708.42"
               id="path2-0" /></g><ellipse
             class="cls-1"
             cx="500"
             cy="500"
             rx="443.47"
             ry="374.17999"
             id="ellipse2" /></g><path
           class="cls-3"
           d="M 626,845.86 H 331.69 V 947 a 10,10 0 0 0 10,10 h 316.62 a 10,10 0 0 0 10,-10 V 845.86 Z"
           id="path3-7" /><path
           class="cls-3"
           d="M 626,154.14 H 331.69 V 53 a 10,10 0 0 1 10,-10 h 316.62 a 10,10 0 0 1 10,10 v 101.14 z"
           id="path4-6" /></g></g></g></svg>
