<?xml version="1.0" encoding="UTF-8" standalone="no"?>

<svg
   version="1.1"
   id="svg1"
   width="420.17578"
   height="516.43658"
   viewBox="0 0 420.17578 516.43658"
   xmlns="http://www.w3.org/2000/svg"
   xmlns:svg="http://www.w3.org/2000/svg">
  <defs
     id="defs1">
    <clipPath
       clipPathUnits="userSpaceOnUse"
       id="clipPath1918-0">
      <path
         d="M 242.823,373.057 56.603,125.282 c -1.747,-2.325 -2.958,-5.009 -3.543,-7.857 v 0 L 34.59,27.566 c -2.007,-9.76 8.239,-17.461 17.056,-12.819 v 0 l 81.179,42.729 c 2.573,1.355 4.815,3.263 6.562,5.588 v 0 l 186.22,247.776 c 6.526,8.684 4.778,21.015 -3.906,27.542 v 0 l -51.336,38.582 c -3.541,2.662 -7.69,3.947 -11.803,3.947 v 0 c -5.974,0 -11.874,-2.71 -15.739,-7.854"
         transform="translate(-40.744251,-57.509404)"
         id="path1918-6" />
    </clipPath>
    <clipPath
       clipPathUnits="userSpaceOnUse"
       id="clipPath1920-0">
      <path
         d="M 0,396.85 H 396.85 V 0 H 0 Z"
         transform="translate(-242.82276,-373.05761)"
         id="path1920-6" />
    </clipPath>
  </defs>
  <g
     id="layer-MC0"
     transform="translate(-17696.167,631.15418)">
    <path
       id="path1917-1"
       d="M 0,0 38.444,-28.893 -12.468,-56.985 Z"
       style="fill-opacity:1;fill-rule:nonzero;stroke:none"
       transform="matrix(1.3333333,0,0,-1.3333333,17718.008,-186.69626)"
       clip-path="url(#clipPath1918-0)" />
    <path
       id="path1919-8"
       d="m 0,0 -186.22,-247.776 c -1.747,-2.325 -2.957,-5.008 -3.543,-7.857 l -18.471,-89.858 c -2.006,-9.761 8.24,-17.462 17.058,-12.82 l 81.177,42.73 c 2.574,1.354 4.815,3.263 6.563,5.588 l 186.22,247.776 c 6.526,8.684 4.777,21.015 -3.907,27.541 L 27.542,3.906 C 18.858,10.433 6.527,8.684 0,0 Z"
       style="fill:none;stroke-width:20;stroke-linecap:butt;stroke-linejoin:miter;stroke-miterlimit:10;stroke-dasharray:none;stroke-opacity:1"
       transform="matrix(1.3333333,0,0,-1.3333333,17987.446,-607.42719)"
       clip-path="url(#clipPath1920-0)" />
  </g>
</svg>
